# xmcd
#
# Track frame offsets:
#	150
#	17348
#	29531
#	48401
#	62360
#	79914
#	114882
#	134261
#	155541
#
# Disc length: 2267 seconds
#
# Revision: 0
# Processed by: cddbd v1.4PL0 Copyright (c) Steve Scherf et al.
# Submitted via: dBpowerAMP V4.0
#
DISCID=6508d909
DTITLE=Varios - Bluseiros Do Brasil- Edicao Gaitistas
DYEAR=1900
DGENRE=
TTITLE0=School Days
TTITLE1=The First Time
TTITLE2=Can`t You See
TTITLE3=I Love My Baby
TTITLE4=Blues Da Vida
TTITLE5=Women
TTITLE6=Camarada Mandao
TTITLE7=My Mind Is Clean
TTITLE8=Girls And Money
EXTD=
EXTT0=
EXTT1=
EXTT2=
EXTT3=
EXTT4=
EXTT5=
EXTT6=
EXTT7=
EXTT8=
PLAYORDER=
